#!OML:ASF \\sashay\E\Suitcase\Project 1\Capture day 1\Session 1\Male1.ASF
:FULLY-SPECIFIED
:DEGREES
27
root 0.540148 17.5103 -36.0275 5.20176 3.46146 -2.75796
lowerback -1.42389 -2.41324 0.352827
upperback -3.32986 -3.15393 3.39649
thorax -2.45167 -1.54123 3.31755
lowerneck -15.2846 -5.96789 -5.10739
upperneck 16.9591 -7.17595 0.934354
head 7.98678 -3.65326 0.319733
rclavicle 5.34731e-014 -2.70347e-014
rhumerus -32.3869 -17.2158 -73.4064
rradius 21.5838
rwrist -11.026
rhand -18.2081 17.944
rfingers 7.12502
rthumb 8.0695 -11.882
lclavicle 5.34731e-014 -2.70347e-014
lhumerus -34.7226 8.73126 83.0225
lradius 32.5778
lwrist -4.00053
lhand -2.7595 42.1833
lfingers 7.12502
lthumb 22.9448 70.838
rfemur -10.6343 -0.219083 24.8287
rtibia 25.6527
rfoot -20.327 -8.59781
rtoes 15.3978
lfemur -13.2156 -5.93484 -15.6667
ltibia 28.6522
lfoot -20.5649 4.9131
ltoes -4.90815
28
root 0.543645 17.5047 -36.0286 5.16378 3.49118 -2.80149
lowerback -1.54993 -2.50169 0.553913
upperback -3.03663 -3.28535 3.26744
thorax -2.08947 -1.61741 3.05509
lowerneck -16.0543 -5.53398 -4.83822
upperneck 16.7623 -6.62428 1.08239
head 8.03399 -3.35209 0.37378
rclavicle 1.88845e-015 3.18055e-015
rhumerus -32.054 -17.3753 -74.068
rradius 21.4165
rwrist -10.7576
rhand -18.1524 17.9401
rfingers 7.12502
rthumb 8.12322 -11.8838
lclavicle 1.88845e-015 3.18055e-015
lhumerus -34.0872 8.62014 82.8546
lradius 32.8115
lwrist -3.83378
lhand -2.74298 41.9815
lfingers 7.12502
lthumb 22.9606 70.6341
rfemur -10.6079 -0.0492239 24.8765
rtibia 25.6451
rfoot -20.4051 -8.72226
rtoes 15.4637
lfemur -13.2012 -6.01579 -15.6174
ltibia 28.6805
lfoot -20.6112 4.84607
ltoes -4.02801
29
root 0.551765 17.5073 -36.0221 5.17215 3.60322 -2.62966
lowerback -0.769181 -2.66368 1.01821
upperback -3.62023 -3.47128 2.83702
thorax -3.17604 -1.71866 2.41751
lowerneck -16.0044 -5.17838 -4.24087
upperneck 17.3728 -6.23389 0.765851
head 8.18616 -3.16294 0.21442
rclavicle -3.28492e-014 -2.26615e-014
rhumerus -33.2951 -17.7944 -74.2137
rradius 21.1924
rwrist -9.97399
rhand -17.773 18.2339
rfingers 7.12502
rthumb 8.48945 -11.5755
lclavicle -3.28492e-014 -2.26615e-014
lhumerus -35.1496 7.82259 82.3448
lradius 33.6046
lwrist -3.14934
lhand -2.34647 42.4761
lfingers 7.12502
lthumb 23.341 71.081
rfemur -10.5551 -0.0804781 24.6809
rtibia 25.6687
rfoot -20.4861 -8.9202
rtoes 15.6324
lfemur -13.1906 -5.89913 -15.8429
ltibia 28.6817
lfoot -20.6364 4.73649
ltoes -4.68398
30
root 0.560019 17.5052 -36.0244 5.15263 3.63072 -2.70069
lowerback -0.860595 -2.45202 0.636323
upperback -3.52175 -3.19341 3.01767
thorax -3.00078 -1.56784 2.80349
lowerneck -15.8172 -4.97903 -4.05899
upperneck 16.8715 -5.96735 0.581786
head 7.96666 -3.04346 0.168571
rclavicle -1.4238e-014 -5.96354e-015
rhumerus -33.5341 -18.3213 -73.8336
rradius 21.1291
rwrist -10.0507
rhand -17.3715 18.2093
rfingers 7.12502
rthumb 8.8769 -11.584
lclavicle -1.4238e-014 -5.96354e-015
lhumerus -34.7251 7.21273 83.1005
lradius 33.745
lwrist -3.35179
lhand -2.89977 42.1697
lfingers 7.12502
lthumb 22.8102 70.8409
rfemur -10.5412 -0.0704919 24.7403
rtibia 25.6577
rfoot -20.4755 -8.97636
rtoes 15.2133
lfemur -13.2136 -6.08962 -15.7913
ltibia 28.7198
lfoot -20.5397 4.90432
ltoes -4.20611
31
root 0.56556 17.5086 -36.0186 5.1861 3.84284 -2.75853
lowerback -0.863247 -2.44904 0.639685
upperback -3.57125 -3.18878 2.98378
thorax -3.05276 -1.56549 2.76827
lowerneck -15.8914 -4.89094 -3.73487
upperneck 16.9293 -5.87792 0.357893
head 7.97895 -3.00225 0.0510259
rclavicle 6.43565e-015 4.77083e-015
rhumerus -34.0561 -19.4455 -73.4124
rradius 20.8423
rwrist -8.85958
rhand -17.2542 18.3877
rfingers 7.12502
rthumb 8.99006 -11.4008
lclavicle 6.43565e-015 4.77083e-015
lhumerus -34.6858 6.75614 83.2887
lradius 34.1677
lwrist -3.25389
lhand -2.70797 43.2014
lfingers 7.12502
lthumb 22.9942 71.8499
rfemur -10.5456 -0.101845 24.7966
rtibia 25.678
rfoot -20.5687 -9.02402
rtoes 15.8301
lfemur -13.2864 -5.76358 -15.7153
ltibia 28.7139
lfoot -20.6946 4.38713
ltoes -4.91879
32
root 0.574714 17.5073 -36.0186 5.21444 3.81617 -2.87698
lowerback -0.792274 -2.30509 0.60112
upperback -3.64759 -2.99126 3.05678
thorax -3.1745 -1.46331 2.86838
lowerneck -15.4889 -4.79234 -3.61488
upperneck 16.4324 -5.75362 0.208689
head 7.73227 -2.95169 0.014629
rclavicle 4.86029e-014 1.19271e-014
rhumerus -34.611 -19.8351 -73.1098
rradius 20.897
rwrist -8.97203
rhand -16.2603 18.9861
rfingers 7.12502
rthumb 9.94902 -10.7588
lclavicle 4.86029e-014 1.19271e-014
lhumerus -34.663 6.15056 83.7165
lradius 34.4521
lwrist -3.17513
lhand -2.52006 42.7253
lfingers 7.12502
lthumb 23.1745 71.3512
rfemur -10.6101 -0.244842 24.893
rtibia 25.7008
rfoot -20.5627 -8.94525
rtoes 15.2126
lfemur -13.3275 -5.70754 -15.6232
ltibia 28.7054
lfoot -20.683 4.442
ltoes -4.88421
33
root 0.585698 17.5077 -36.0111 5.12115 3.81217 -2.72354
lowerback -0.874535 -2.19825 0.298859
upperback -3.52701 -2.85701 3.04959
thorax -2.99474 -1.38982 3.0199
lowerneck -15.7864 -4.58852 -3.70253
upperneck 16.7085 -5.46666 0.333478
head 7.87695 -2.80723 0.0918563
rclavicle -9.0447e-015 0
rhumerus -34.9351 -20.4657 -72.8406
rradius 21.0759
rwrist -8.74421
rhand -15.9912 18.4687
rfingers 7.12502
rthumb 10.2086 -11.2636
lclavicle -9.0447e-015 0
lhumerus -34.5511 5.69237 84.107
lradius 34.7599
lwrist -3.20626
lhand -2.67876 42.3284
lfingers 7.12502
lthumb 23.0222 70.9734
rfemur -10.4916 -0.461374 24.6643
rtibia 25.7392
rfoot -20.5355 -8.78956
rtoes 15.4572
lfemur -13.1556 -5.58689 -15.8562
ltibia 28.6732
lfoot -20.7397 4.24781
ltoes -4.51281
34
root 0.595525 17.5021 -36.0153 5.13953 3.99097 -2.74884
lowerback -1.20648 -2.18474 0.209295
upperback -3.02203 -2.85779 3.11507
thorax -2.27851 -1.39604 3.10596
lowerneck -17.0276 -4.52925 -3.51036
upperneck 16.7082 -5.35691 0.232972
head 8.083 -2.74518 0.0123466
rclavicle 1.55922e-014 5.1684e-015
rhumerus -34.317 -20.3848 -73.2906
rradius 21.166
rwrist -9.10505
rhand -16.3594 18.0921
rfingers 7.12502
rthumb 9.85339 -11.6573
lclavicle 1.55922e-014 5.1684e-015
lhumerus -33.3808 5.19707 84.6234
lradius 34.8943
lwrist -2.85211
lhand -2.61496 42.8616
lfingers 7.12502
lthumb 23.0835 71.4989
rfemur -10.5547 -0.579831 24.6786
rtibia 25.7906
rfoot -20.5832 -8.88291
rtoes 14.7075
lfemur -13.2542 -5.82503 -15.8351
ltibia 28.6391
lfoot -20.6588 4.23559
ltoes -4.20963
35
root 0.598521 17.5006 -36.0132 5.11802 4.14505 -2.75385
lowerback -0.562488 -2.10645 0.302474
upperback -3.75796 -2.72559 2.91553
thorax -3.4229 -1.32121 2.89896
lowerneck -15.1238 -4.38274 -3.34147
upperneck 16.0073 -5.2779 0.267058
head 7.51263 -2.70331 0.0583808
rclavicle 2.94947e-014 4.37326e-015
rhumerus -36.2563 -21.2795 -72.4688
rradius 21.1113
rwrist -8.62291
rhand -15.7961 18.6626
rfingers 7.12502
rthumb 10.3969 -11.0603
lclavicle 2.94947e-014 4.37326e-015
lhumerus -34.7226 4.24088 84.6205
lradius 35.3417
lwrist -2.84845
lhand -2.54386 43.1589
lfingers 7.12502
lthumb 23.1517 71.7877
rfemur -10.5274 -0.557757 24.699
rtibia 25.8516
rfoot -20.6735 -9.06133
rtoes 15.6746
lfemur -13.2196 -5.71097 -15.8461
ltibia 28.6008
lfoot -20.6397 4.22117
ltoes -6.02591
36
root 0.608254 17.503 -36.0114 5.23675 4.08951 -2.76908
lowerback -0.723246 -2.1013 0.203404
upperback -3.6619 -2.72229 3.03994
thorax -3.22248 -1.31703 3.07267
lowerneck -15.5686 -4.10794 -3.46224
upperneck 16.0583 -4.84159 0.199177
head 7.60084 -2.50676 0.094229
rclavicle -5.92875e-014 4.17448e-014
rhumerus -36.1375 -20.9597 -72.7025
rradius 21.2271
rwrist -8.89382
rhand -16.1506 18.5806
rfingers 7.12502
rthumb 10.0549 -11.1592
lclavicle -5.92875e-014 4.17448e-014
lhumerus -34.4257 4.19989 84.9369
lradius 35.5644
lwrist -2.7772
lhand -2.47457 42.5259
lfingers 7.12502
lthumb 23.2182 71.1463
rfemur -10.6787 -0.476024 24.6709
rtibia 25.8623
rfoot -20.7121 -9.03333
rtoes 14.8967
lfemur -13.3254 -5.94862 -15.834
ltibia 28.6039
lfoot -20.5866 4.26963
ltoes -4.03406
37
root 0.617659 17.5013 -36.0087 5.16664 4.15982 -2.75938
lowerback -0.702057 -2.05991 0.111999
upperback -3.53277 -2.6706 3.05374
thorax -3.09848 -1.29025 3.13398
lowerneck -15.8053 -4.0056 -3.35173
upperneck 15.8178 -4.68956 0.0621457
head 7.55353 -2.43859 0.0468283
rclavicle 2.95692e-015 -1.07344e-014
rhumerus -36.2467 -21.5648 -72.4675
rradius 21.0564
rwrist -8.54613
rhand -16.0309 18.8499
rfingers 7.12502
rthumb 10.1704 -10.8842
lclavicle 2.95692e-015 -1.07344e-014
lhumerus -34.1366 3.90974 85.1871
lradius 35.7177
lwrist -2.81179
lhand -2.76734 42.237
lfingers 7.12502
lthumb 22.9372 70.8925
rfemur -10.5752 -0.540066 24.6267
rtibia 25.8677
rfoot -20.7824 -9.02485
rtoes 15.4349
lfemur -13.2218 -5.86776 -15.892
ltibia 28.5935
lfoot -20.6325 4.23634
ltoes -4.83303
38
root 0.630862 17.5024 -36.0053 5.26983 4.16654 -2.91095
lowerback -0.548257 -2.01587 0.330129
upperback -3.69689 -2.60166 3.04695
thorax -3.36891 -1.25872 3.01547
lowerneck -15.9511 -4.05404 -3.26636
upperneck 16.1262 -4.74862 -0.0630893
head 7.67632 -2.47434 -0.0214255
rclavicle 7.95139e-015 1.59028e-015
rhumerus -36.6873 -21.4999 -72.5407
rradius 21.1569
rwrist -8.77281
rhand -16.405 18.7908
rfingers 7.12502
rthumb 9.80945 -10.9607
lclavicle 7.95139e-015 1.59028e-015
lhumerus -34.3866 3.41924 85.4178
lradius 36.2005
lwrist -2.37532
lhand -2.59162 43.585
lfingers 7.12502
lthumb 23.1058 72.2195
rfemur -10.6884 -0.629835 24.7411
rtibia 25.8362
rfoot -20.6993 -8.92723
rtoes 14.9838
lfemur -13.3949 -5.85161 -15.7601
ltibia 28.6038
lfoot -20.7132 4.18994
ltoes -4.0733
39
root 0.639057 17.4981 -35.9994 5.14273 4.21704 -2.77571
lowerback -0.43309 -1.98175 0.202061
upperback -3.71722 -2.55932 2.90489
thorax -3.45758 -1.23506 2.94488
lowerneck -15.5093 -3.98733 -2.91485
upperneck 15.7012 -4.73029 -0.199268
head 7.44613 -2.45767 -0.105696
rclavicle -3.26007e-014 3.18055e-014
rhumerus -37.1674 -21.8464 -72.4422
rradius 21.0843
rwrist -8.79437
rhand -16.0876 19.4487
rfingers 7.12502
rthumb 10.1157 -10.2881
lclavicle -3.26007e-014 3.18055e-014
lhumerus -34.5984 2.88506 85.5268
lradius 36.4421
lwrist -2.21664
lhand -3.18178 42.3394
lfingers 7.12502
lthumb 22.5395 71.0438
rfemur -10.5008 -0.629521 24.5603
rtibia 25.8696
rfoot -20.7556 -8.99957
rtoes 16.3723
lfemur -13.1563 -5.82734 -15.9611
ltibia 28.576
lfoot -20.7426 4.21035
ltoes -4.98582
40
root 0.642211 17.499 -35.9992 5.1592 4.17838 -2.86299
lowerback -0.552706 -1.85301 0.115729
upperback -3.64145 -2.39141 2.93928
thorax -3.31469 -1.14968 3.01805
lowerneck -15.6858 -3.85439 -3.03256
upperneck 15.8124 -4.5408 -0.0574883
head 7.51733 -2.36024 -0.0243402
rclavicle -1.02995e-014 7.95139e-016
rhumerus -37.4344 -22.3352 -72.2102
rradius 21.0492
rwrist -8.45753
rhand -16.5345 19.7166
rfingers 7.12502
rthumb 9.68453 -10.0407
lclavicle -1.02995e-014 7.95139e-016
lhumerus -34.5953 2.48774 85.8387
lradius 36.8782
lwrist -2.23757
lhand -3.06864 43.2465
lfingers 7.12502
lthumb 22.6481 71.9377
rfemur -10.5235 -0.40481 24.6506
rtibia 25.8581
rfoot -20.871 -9.13496
rtoes 15.1216
lfemur -13.2285 -5.79551 -15.8711
ltibia 28.558
lfoot -20.7576 4.14442
ltoes -4.2987
41
root 0.655028 17.4999 -36.0015 5.21477 4.4146 -2.72779
lowerback -0.751972 -2.02155 -0.0435943
upperback -3.29029 -2.62763 3.06375
thorax -2.81429 -1.26873 3.22108
lowerneck -16.8911 -3.73839 -3.31111
upperneck 16.0266 -4.25751 -0.0992354
head 7.79947 -2.24245 0.0134477
rclavicle 2.76559e-014 -2.46493e-014
rhumerus -36.6458 -22.3588 -72.4113
rradius 20.8937
rwrist -8.15845
rhand -17.2938 19.088
rfingers 7.12502
rthumb 8.95184 -10.7021
lclavicle 2.76559e-014 -2.46493e-014
lhumerus -33.792 2.83569 86.0896
lradius 36.817
lwrist -2.38007
lhand -2.93673 43.496
lfingers 7.12502
lthumb 22.7747 72.1716
rfemur -10.5767 -0.66616 24.4598
rtibia 25.8518
rfoot -20.8818 -9.14539
rtoes 15.3905
lfemur -13.2993 -5.87393 -16.0626
ltibia 28.5441
lfoot -20.6864 4.13778
ltoes -5.66432
